<?xml version="1.0" encoding="iso-8859-1"?>
<!-- Generator: Adobe Illustrator 16.0.0, SVG Export Plug-In . SVG Version: 6.00 Build 0)  -->
<!DOCTYPE svg PUBLIC "-//W3C//DTD SVG 1.1//EN" "http://www.w3.org/Graphics/SVG/1.1/DTD/svg11.dtd">
<svg version="1.1" id="Capa_1" xmlns="http://www.w3.org/2000/svg" xmlns:xlink="http://www.w3.org/1999/xlink" x="0px" y="0px"
	 fill="purple" width="523.26px" height="523.26px" viewBox="0 0 523.26 523.26" style="enable-background:new 0 0 523.26 523.26;"
	 xml:space="preserve">
<g>
	<g>
		<circle cx="85.175" cy="425.11" r="39.006"/>
		<path d="M64.444,354.94c3.529,0,6.378-2.85,6.378-6.378v-58.991c0-3.528-2.85-6.378-6.378-6.378c-3.528,0-6.378,2.85-6.378,6.378
			v58.991C58.066,352.091,60.916,354.94,64.444,354.94z"/>
		<path d="M140.112,379.01v-39.866c0-3.528-2.85-6.378-6.378-6.378c-3.529,0-6.378,2.85-6.378,6.378v39.866
			c0,3.528,2.85,6.378,6.378,6.378C137.262,385.388,140.112,382.538,140.112,379.01z"/>
		<path d="M42.068,315.094c3.528,0,6.378-2.85,6.378-6.378v-58.982c0-3.528-2.85-6.378-6.378-6.378c-3.529,0-6.378,2.85-6.378,6.378
			v58.982C35.689,312.244,38.539,315.094,42.068,315.094z"/>
		<path d="M107.427,256.208c1.444,0,2.926-0.172,4.399-0.517l81.281-19.125c3.825-0.899,7.277-2.955,9.897-5.891l55.845-62.644
			v102.452c0.058-0.057,0.125-0.104,0.182-0.162c-0.038,0.603-0.182,1.176-0.182,1.798v63.753h-30.141l17.873-78.413
			c2.936-12.88-5.125-25.694-17.997-28.621c-12.852-2.936-25.685,5.125-28.621,17.997l-56.333,247.2
			c-2.936,12.881,5.125,25.694,17.997,28.62c1.789,0.401,3.567,0.603,5.336,0.603c10.911,0,20.76-7.516,23.285-18.599
			l27.712-121.626c1.711,0.393,3.48,0.641,5.307,0.641h35.582v22.31c0,15.845,12.842,28.688,28.688,28.688
			c10.289,0,19.24-5.46,24.308-13.598c5.059,8.138,14.019,13.598,24.309,13.598c15.845,0,28.688-12.843,28.688-28.688v-22.31h46.626
			l27.569,120.976c2.524,11.093,12.373,18.599,23.284,18.599c1.76,0,3.548-0.2,5.336-0.603c12.881-2.936,20.933-15.739,17.997-28.62
			l-45.91-201.463c4.218-1.96,7.832-5.259,9.735-9.906l36.652-89.324c3.777-9.189-0.114-19.737-8.95-24.27L360.04,108.878
			c-4.953-2.543-10.48-2.668-15.329-0.889h-67.263c-7.152-2.649-15.51-0.87-20.903,5.164l-78.068,87.564l-75.4,17.738
			c-10.28,2.419-16.658,12.718-14.239,22.998C90.903,250.27,98.754,256.208,107.427,256.208z M364.831,268.754V154.348
			l79.234,40.717l-18.092,44.093c-5.326-8.167-15.291-12.623-25.283-10.328c-12.881,2.936-20.933,15.74-17.997,28.621l17.872,78.412
			h-35.734V272.11c0-1.253-0.22-2.438-0.373-3.653C364.582,268.572,364.716,268.648,364.831,268.754z"/>
		<circle cx="311.845" cy="45.804" r="45.804"/>
	</g>
</g>
<g>
</g>
<g>
</g>
<g>
</g>
<g>
</g>
<g>
</g>
<g>
</g>
<g>
</g>
<g>
</g>
<g>
</g>
<g>
</g>
<g>
</g>
<g>
</g>
<g>
</g>
<g>
</g>
<g>
</g>
</svg>
