<?xml version="1.0" encoding="iso-8859-1"?>
<!-- Generator: Adobe Illustrator 18.1.1, SVG Export Plug-In . SVG Version: 6.00 Build 0)  -->
<svg version="1.1" id="Capa_1" xmlns="http://www.w3.org/2000/svg" xmlns:xlink="http://www.w3.org/1999/xlink" x="0px" y="0px"
	 viewBox="0 0 212 212" style="enable-background:new 0 0 212 212;" xml:space="preserve">
<g>
	<g>
		<path style="fill:#CD3700;" d="M96.3,81.65h4c-13.8-22.4,9.7-32.9,9.7-32.9c-7.2,6.3,4.2,14.2,4.2,14.2c9.7,6,0,18.7,0,18.7h7.8
			c32-61.5-30.6-65.7-30.6-65.7s7.6,9-10.9,30.1S96.3,81.65,96.3,81.65z"/>
		<path style="fill:#CDAD00;" d="M136.3,88.05c-0.8-1.1-2.1-1.7-3.5-1.7H79.6c-1.4,0-2.7,0.6-3.5,1.7s-1.1,2.5-0.8,3.9l26.6,100.8
			c0.5,2,2.3,3.3,4.3,3.3c2,0,3.8-1.4,4.3-3.3l26.6-100.8C137.4,90.55,137.1,89.15,136.3,88.05z"/>
		<path style="fill:#000033;" d="M41.6,145.05c-5.9-9.5-9.1-20.9-7.4-32.2c1-7.1,3.8-13.7,7.5-19.9c3.3,0.7,7.5-2.9,9.8-8.7
			c2.4-6.1,0.6-19.7,0.6-19.7s-10.4,8.6-12.8,14.7c-2.4,6.1-1.6,12.2,1.8,13.6c-4,6-7.1,12.5-8.5,19.7c-2.4,11.6,0.4,23.9,6.1,34.1
			c5.7,10.4,13.8,19.2,22.6,26.9c8.9,7.7,18.4,14.4,28.9,20.1l2.9-5.9c-10-4.9-19.8-11.1-28.6-18.1
			C55.6,162.75,47.5,154.65,41.6,145.05z"/>
		<path style="fill:#006400;" d="M31.2,105.25c0.8-3.5-3.7-7.5-10.1-8.9s-19.6,2.5-19.6,2.5s10.1,8.9,16.5,10.3
			C24.4,110.55,30.3,108.85,31.2,105.25z"/>
		<path style="fill:#010002;" d="M37.5,109.75c2.1,3,8.2,2.4,13.6-1.2c5.4-3.6,11.6-15.7,11.6-15.7s-13.7,1.3-19.1,4.9
			C38.1,101.45,35.3,106.75,37.5,109.75z"/>
		<path style="fill:#010002;" d="M39.9,131.85c2.3,2.8,8.3,1.9,13.5-2c5.2-4,10.6-16.3,10.6-16.3s-13.6,2.1-18.8,6
			C40,123.45,37.6,128.95,39.9,131.85z"/>
		<path style="fill:#010002;" d="M55.2,138.45c-4.2,5-5.3,10.9-2.5,13.2s8.5,0.1,12.7-5c4.2-5,6.8-18.3,6.8-18.3
			S59.4,133.45,55.2,138.45z"/>
		<path style="fill:#010002;" d="M69.6,158.55c-3.9,5.2-4.7,11.2-1.7,13.3s8.5-0.4,12.4-5.7c3.9-5.2,5.7-18.6,5.7-18.6
			S73.5,153.25,69.6,158.55z"/>
		<path style="fill:#010002;" d="M29.7,130.25c0.8-3.5-3.7-7.5-10.1-8.9S0,123.85,0,123.85s10.1,9,16.5,10.4
			C23,135.45,28.9,133.75,29.7,130.25z"/>
		<path style="fill:#010002;" d="M41.1,157.35c0.9-3.5-3.6-7.5-10-8.9s-19.6,2.5-19.6,2.5s10.1,8.9,16.5,10.3
			C34.3,162.65,40.2,160.85,41.1,157.35z"/>
		<path style="fill:#010002;" d="M52.9,174.05c-6.4-1.4-19.6,2.5-19.6,2.5s10.1,8.9,16.5,10.4c6.4,1.4,12.3-0.4,13.1-3.9
			C63.8,179.45,59.3,175.45,52.9,174.05z"/>
		<path style="fill:#010002;" d="M173.4,146.65c5.7-10.2,8.5-22.5,6.1-34.1c-1.4-7.2-4.5-13.8-8.5-19.7c3.3-1.4,4.1-7.5,1.8-13.6
			c-2.4-6.1-12.8-14.7-12.8-14.7s-1.8,13.6,0.6,19.7c2.2,5.7,6.5,9.4,9.8,8.7c3.7,6.1,6.5,12.8,7.5,19.9c1.8,11.3-1.4,22.7-7.4,32.2
			c-5.9,9.6-14,17.7-22.9,24.7c-8.8,7-18.6,13.2-28.6,18.1l2.9,5.9c10.5-5.7,20-12.4,28.9-20.1
			C159.7,165.85,167.7,157.05,173.4,146.65z"/>
		<path style="fill:#010002;" d="M194.2,109.15c6.4-1.4,16.5-10.3,16.5-10.3s-13.2-3.9-19.6-2.5c-6.4,1.4-10.9,5.4-10.1,8.9
			C181.9,108.85,187.8,110.55,194.2,109.15z"/>
		<path style="fill:#010002;" d="M174.7,109.75c2.1-3-0.6-8.4-6.1-12c-5.4-3.6-19.1-4.9-19.1-4.9s6.1,12,11.6,15.7
			C166.6,112.15,172.7,112.75,174.7,109.75z"/>
		<path style="fill:#010002;" d="M158.8,129.75c5.2,4,11.3,4.9,13.5,2c2.3-2.9-0.1-8.4-5.3-12.3c-5.2-4-18.8-6-18.8-6
			S153.6,125.85,158.8,129.75z"/>
		<path style="fill:#010002;" d="M159.5,151.65c2.8-2.3,1.7-8.2-2.5-13.2s-17-10-17-10s2.5,13.3,6.8,18.3
			C151,151.75,156.7,153.95,159.5,151.65z"/>
		<path style="fill:#010002;" d="M126.2,147.55c0,0,1.8,13.4,5.7,18.6c3.9,5.3,9.5,7.8,12.4,5.7c3-2.1,2.2-8.1-1.7-13.3
			C138.7,153.25,126.2,147.55,126.2,147.55z"/>
		<path style="fill:#010002;" d="M192.5,121.25c-6.4,1.4-10.9,5.4-10.1,8.9c0.9,3.5,6.7,5.3,13.1,3.9c6.4-1.4,16.5-10.4,16.5-10.4
			S198.9,119.85,192.5,121.25z"/>
		<path style="fill:#010002;" d="M181.2,148.45c-6.4,1.4-10.9,5.4-10,8.9c0.8,3.5,6.7,5.3,13.1,3.9c6.4-1.4,16.5-10.3,16.5-10.3
			S187.6,147.05,181.2,148.45z"/>
		<path style="fill:#010002;" d="M159.3,174.05c-6.4,1.4-10.9,5.4-10.1,8.9c0.8,3.5,6.7,5.3,13.1,3.9c6.4-1.4,16.5-10.4,16.5-10.4
			S165.7,172.75,159.3,174.05z"/>
	</g>
</g>
<g>
</g>
<g>
</g>
<g>
</g>
<g>
</g>
<g>
</g>
<g>
</g>
<g>
</g>
<g>
</g>
<g>
</g>
<g>
</g>
<g>
</g>
<g>
</g>
<g>
</g>
<g>
</g>
<g>
</g>
</svg>
