<?xml version="1.0" encoding="iso-8859-1"?>
<!-- Generator: Adobe Illustrator 16.0.0, SVG Export Plug-In . SVG Version: 6.00 Build 0)  -->
<!DOCTYPE svg PUBLIC "-//W3C//DTD SVG 1.1//EN" "http://www.w3.org/Graphics/SVG/1.1/DTD/svg11.dtd">
<svg version="1.1" id="Capa_1" xmlns="http://www.w3.org/2000/svg" xmlns:xlink="http://www.w3.org/1999/xlink" x="0px" y="0px"
	 fill="#20BF9F" width="479.313px" height="479.314px" viewBox="0 0 479.313 479.314" style="enable-background:new 0 0 479.313 479.314;"
	 xml:space="preserve">
<g>
	<g>
		<path d="M344.354,165.459c-5.446-0.547-11.173-0.459-16.018-2.292c-6.163-2.322-11.129-6.638-15.861-10.932
			c-6.576-5.983-19.793-10.425-28.673-10.82c-9.39-0.407-19.188-0.457-27.323,1.068c-8.738,1.633-7.302,6.838,1.587,6.54
			c7.33-0.245,14.391-0.575,20.37,0.269c8.8,1.238,6.632,6.999-2.253,7.292c-16.014,0.533-30.734,2.395-43.694,4.687
			c-3.769,0.667-7.797,0.99-11.5,1.726c-6.306,1.258-3.116,4.508,5.761,4.923c23.898,1.13,40.256,7.482,55.084,18.02
			c3.603,2.557,11.301,10.479,12.326,10.438c0.706-0.03,8.824-8.736,11.386-10.438c8.632-5.751,21.809-12.028,37.064-13.96
			C351.451,170.869,353.19,166.357,344.354,165.459z M299.359,180c-1.219,0.229-2.485,0.329-3.771,0.312
			c-8.893-0.076-10.066-7.528-5.774-5.829c4.296,1.693,10.804-0.285,12.735-3.505C304.48,167.759,308.107,178.389,299.359,180z"/>
		<path d="M380.156,179.12c-12.307-1.549-26.26-0.274-37.084,3.535c-8.388,2.943-9.021,7.816-3.218,8.534
			c5.811,0.713,16.366-1.855,25.03-3.841c4.66-1.066,9.706-1.741,14.835-2.331C388.549,183.998,388.978,180.229,380.156,179.12z"/>
		<path d="M176.509,198.276c-18.716,0.877-38.477,1.571-54.959,5.416c-8.66,2.016-8.144,3.879,0.689,2.921
			c72.528-7.867,147.454,6.772,205.208,26.928c8.396,2.923,16.883,3.837,19.48,2.212c2.592-1.625-3.371-7.199-11.666-10.385
			C291.393,208.521,232.317,195.653,176.509,198.276z"/>
		<path d="M470.58,187.922c-6.708-5.843-15.288-17.02-20.478-24.234c-7.811-10.875-17.601-19.767-28.145-27.908
			c-7.037-5.432-11.116-14.194-11.036-20.293c0.076-6.099-4.709-16.562-11.201-22.636c-37.666-35.162-93.713-51.716-164.384-47.24
			C126.579,52.488,52.125,98.395,3.016,160.806c-5.498,6.987-3.198,15.303,4.623,18.549c7.818,3.25,11.429,10.651,9.265,17.233
			c-1.234,3.761-2.232,7.913-2.645,12.233c-7.61,78.606,50.922,107.884,109.118,130.939c29.086,11.529,49.007,27.106,67.373,41.749
			c19.438,15.517,37.898,39.649,60.732,48.39c32.151,12.327,70.002-2.629,87.298-19.925c15.224-15.232,29.547-41.465,26.762-67.012
			c-0.95-8.845-9.558-10.953-16.299-5.15c-3.197,2.745-6.468,5.402-10.074,7.742c-7.458,4.846-19.433,1.267-21.312-6.908
			c-1.884-8.163,6.676-17.809,14.871-21.26c6.873-2.897,13.693-5.839,20.278-9.013c8.015-3.851,14.13-5.129,13.38-2.24
			c-0.753,2.897,8.969,3.267,17.533,0.858c23.123-6.5,42.823-19.608,55.427-40.303c2.536-4.16,2.769-9.582,5.698-13.285
			c4.889-6.18,14.872-10.074,20.867-18.02c6.271-8.321,14.482-24.659,13.284-34.157C478.531,195.849,474.856,191.647,470.58,187.922
			z M34.667,168.146c15.034-2.785,31.873-4.06,48.899-3.745c8.89,0.167,15.003,4.497,11.363,7.253
			c-2.068,1.571-4.508,3.094-6.667,4.891c-3.477,2.897-8.58,9.728-13.282,10.441c-6.987,1.05-18.998-4.975-28.465-7.59
			c-4.705-1.296-9.295-2.663-13.716-3.934C25.225,173.288,25.93,169.773,34.667,168.146z M64.081,249.742
			c41.116-15.878,98.721-21.164,152.424-16.17c8.854,0.826,10.614,7.472,1.79,8.547c-11.83,1.443-27.281-2.38-42.729-2.943
			c-38.499-1.422-79.491,5-110.683,12.834C56.254,254.177,55.794,252.943,64.081,249.742z M256.119,309.584
			c-0.741-2.325-1.411-4.729-1.976-7.237c-1.964-8.664,3.358-15.594,9.622-13.293c6.263,2.3,9.373,12.11,10.219,20.975
			c0.376,3.995,1.158,7.803,2.252,11.361c2.625,8.496,4.164,18.277-0.353,22.177c-4.509,3.911-15.517,3.896-22.967-0.958
			c-11.191-7.273-19.919-17.003-26.826-28.572c-4.561-7.627-12.309-15.493-18.615-16.046c-6.306-0.549-7.842-6.761-0.665-12.002
			c4.104-3.006,8.9-5.17,14.285-5.815c8.832-1.042,18.208,9.217,21.275,17.557c2.184,5.936,4.568,11.653,7.909,16.438
			C255.369,321.45,258.844,318.047,256.119,309.584z M76.721,272.311c29.234-9.69,65.896-13.726,103.634-12.896
			c8.885,0.2,14.225,2.652,11.571,4.721c-2.653,2.071-12.178,3.205-21.063,3.105c-32.696-0.36-64.812,2.172-93.411,7.53
			C68.716,276.394,68.283,275.1,76.721,272.311z M311.481,408.832c-19.645,9.814-47.957,10.472-65.702-0.749
			c-10.263-6.504-18.819-18.823-28.467-28.473c-23.999-23.996-51.928-47.512-87.979-59.999c-8.397-2.914-8.306-3.479,0.336-1.379
			c37.708,9.169,67.792,28.777,93.343,53.788c9.724,9.521,20.033,27.054,33.214,29.414c18.454,3.318,40.815-14.138,56.22-11.529
			C321.199,391.383,319.437,404.861,311.481,408.832z M317.897,366.313c0,2.104,2.484,2.93,4.14,0.261
			c1.663-2.648,4.4-1.187,4.4,1.166c0,2.36,6.123,1.916,11.958-3.402c5.843-5.306,9.79-2.945,6.424,5.282
			c-0.389,0.958-0.81,1.907-1.271,2.845c-3.871,8.011-14.021,6.368-22.493,3.663c-9.562-3.065-20.631-0.108-34.477,4.433
			c-8.96,2.929-20.401,8.403-28.465,6.64c-8.676-1.903-16.486-18.438-21.826-25.623c-3.821-5.149-7.506-9.49-11.235-13.453
			c-6.091-6.48-5.238-8.824,1.877-4.633c3.994,2.356,8.077,5.162,12.209,8.612c6.953,5.795,15.264,18.675,23.728,18.963
			c8.74,0.309,15.561-7.373,21.957-14.366c5.995-6.561,12.587-4.941,11.874,1.61c-0.714,6.549,1.395,10.756,4.012,7.975
			c2.604-2.776,5.374-4.371,5.826-2.107c0.449,2.252,3.519,3.278,6.003,0.817C315.028,362.518,317.897,364.229,317.897,366.313z
			 M420.856,266.865c-5.006,7.891-11.369,14.398-19.228,19.428c-7.49,4.785-14.146,3.482-11.093,0.445
			c1.787-1.779,3.854-3.695,5.165-5.811c1.596-2.561,2.974-5.498,3.988-8.648c1.61-5.021-1.019-7.085-3.174-3.318
			c-2.141,3.764-5.667,4.553-5.711,2.076c-0.048-2.469-2.829-1.286-5.346,2.461c-2.505,3.751-6.444,4.7-6.685,1.896
			c-0.236-2.802-2.998-2.545-5.138,0.521c-2.128,3.065-5.662,3.326-5.51,0.781c0.16-2.545-4.945,1.711-10.965,8.248
			c-5.626,6.119-12.051,11.425-20.102,15.119c-8.07,3.711-11.713-0.938-7.954-8.143c3.763-7.222-1.291-17.524-9.354-21.268
			c-14.836-6.881-31.326-12.118-49.532-15.621c-8.731-1.687-10.964-6.532-3.702-8.864c7.257-2.328,19.984-0.152,27.575,4.468
			c16.426,10.007,34.039,22.534,58.913,20.803c17.949-1.25,35.013-7.285,50.293-14.238c4.66-2.124,8.071-4.98,11.806-6.399
			C422.042,248.163,425.617,259.367,420.856,266.865z M425.12,209.759c-8.411,2.06-23.876-5.17-37.958-6.639
			c-17.104-1.783-31.799-2.795-48.442-2.53c-8.888,0.142-9.461,3.526-0.897,5.889c10.287,2.839,20.843,4.891,30.356,8.973
			c8.451,3.627,16.362,7.796,23.267,12.868c7.17,5.26,5.65,14.553-2.22,18.676c-13.473,7.054-30.789,14.059-47.616,10.203
			c-11.148-2.553-20.462-7.273-29.419-12.335c-8.187-4.618-17.989-14.378-27.511-17.079c-69.517-19.705-167.16-22.355-234.681,2.402
			c-8.346,3.063-15.903-1.036-15.567-9.924c0.142-3.753,0.509-7.356,1.058-10.924c1.353-8.786,10.491-14.274,19.093-12.052
			c2.246,0.579,4.472,1.17,6.71,1.759c8.592,2.286,21.071-0.605,27.972-6.202c34.488-27.97,71.799-53.117,113.517-73.865
			c7.96-3.958,7.436-8.288-1.419-9.117c-31.991-2.974-66.629,1.32-94.646,7.707c-8.666,1.969-16.26,3.947-16.226,3.484
			c0.032-0.473,5.839-5.482,12.842-10.953c39.535-30.907,98.688-51.249,175.655-47.416c37.878,1.885,66.636,12.928,92.034,31.312
			c7.222,5.229,21.016,12.666,21.829,18.975c0.437,3.422-1.139,6.462-3.214,9.257c-3.311,4.45-3.114,13.493-1.359,21.181
			c1.756,7.682,5.583,12.19,7.218,7.576c1.631-4.617,8.055-4.13,11.994,3.837c0.714,1.445,1.391,2.927,2.04,4.426
			c3.583,8.143,8.908,11.369,9.854,7.107c0.941-4.262,7.297-4.03,12.815,2.943c0.545,0.683,1.074,1.372,1.579,2.078
			c5.237,7.183,5.273,19.857,1.627,27.573C432.99,204.083,430.102,208.545,425.12,209.759z M443.049,233.555
			c-7.289,5.08-11.553-2.567-6.331-9.766c3.475-4.781,7.037-9.483,10.15-14.623c4.608-7.602,15.132-10.794,13.806-2.006
			C459.312,216.149,451.737,227.504,443.049,233.555z"/>
	</g>
</g>
<g>
</g>
<g>
</g>
<g>
</g>
<g>
</g>
<g>
</g>
<g>
</g>
<g>
</g>
<g>
</g>
<g>
</g>
<g>
</g>
<g>
</g>
<g>
</g>
<g>
</g>
<g>
</g>
<g>
</g>
</svg>
