<?xml version="1.0" encoding="iso-8859-1"?>
<!-- Generator: Adobe Illustrator 18.0.0, SVG Export Plug-In . SVG Version: 6.00 Build 0)  -->
<!DOCTYPE svg PUBLIC "-//W3C//DTD SVG 1.1//EN" "http://www.w3.org/Graphics/SVG/1.1/DTD/svg11.dtd">
<svg version="1.1" id="Capa_1" xmlns="http://www.w3.org/2000/svg" xmlns:xlink="http://www.w3.org/1999/xlink" x="0px" y="0px"
	 fill="orange" viewBox="0 0 272.947 272.947" style="enable-background:new 0 0 272.947 272.947;" xml:space="preserve">
<g>
	<polygon points="88.539,129.391 99.946,139.131 108.112,129.568 108.112,189.565 123.112,189.565 123.112,109.235 109.909,104.365 
			"/>
	<polygon points="135.961,129.391 147.368,139.131 155.534,129.568 155.534,189.565 170.534,189.565 170.534,109.235 
		157.331,104.365 	"/>
	<path d="M231.065,99.567c-13.52-12.504-21.592-33.529-21.592-56.242c0-8.554,1.144-16.921,3.397-24.868
		c1.007-3.548-0.715-7.301-4.062-8.852l-19.225-8.909c-2.28-1.057-4.941-0.901-7.086,0.419c-2.143,1.319-3.48,3.624-3.563,6.139
		c-0.76,23.031-19.411,41.072-42.462,41.072S94.771,30.284,94.013,7.253c-0.083-2.515-1.421-4.82-3.563-6.139
		c-2.144-1.32-4.805-1.476-7.086-0.419L64.139,9.604c-3.346,1.551-5.068,5.303-4.062,8.851c2.255,7.948,3.397,16.316,3.397,24.869
		c0,22.714-8.072,43.74-21.592,56.242c-1.535,1.419-2.408,3.416-2.408,5.506v140.418c0,2.908,1.681,5.554,4.313,6.79
		c28.811,13.52,60.861,20.667,92.687,20.667s63.876-7.146,92.687-20.667c2.633-1.235,4.313-3.881,4.313-6.79V105.073
		C233.474,102.982,232.601,100.987,231.065,99.567z M218.474,240.664c-25.696,11.319-53.942,17.284-82,17.284
		s-56.304-5.965-82-17.284V108.236c15.081-15.443,24-39.419,24-64.911c0-7.731-0.808-15.346-2.406-22.716l4.328-2.006
		c5.77,25.797,28.616,44.722,56.078,44.722c27.461,0,50.308-18.925,56.079-44.722l4.327,2.006
		c-1.599,7.37-2.406,14.984-2.406,22.716c0,25.491,8.919,49.468,24,64.911V240.664z"/>
</g>
<g>
</g>
<g>
</g>
<g>
</g>
<g>
</g>
<g>
</g>
<g>
</g>
<g>
</g>
<g>
</g>
<g>
</g>
<g>
</g>
<g>
</g>
<g>
</g>
<g>
</g>
<g>
</g>
<g>
</g>
</svg>
