<?xml version="1.0" encoding="iso-8859-1"?>
<!-- Generator: Adobe Illustrator 16.0.0, SVG Export Plug-In . SVG Version: 6.00 Build 0)  -->
<!DOCTYPE svg PUBLIC "-//W3C//DTD SVG 1.1//EN" "http://www.w3.org/Graphics/SVG/1.1/DTD/svg11.dtd">
<svg version="1.1" id="Capa_1" xmlns="http://www.w3.org/2000/svg" xmlns:xlink="http://www.w3.org/1999/xlink" x="0px" y="0px"
	 fill="purple" width="964.975px" height="964.975px" viewBox="0 0 964.975 964.975" style="enable-background:new 0 0 964.975 964.975;"
	 xml:space="preserve">
<g>
	<g>
		<path d="M670.587,139.675h-139.5l-43.1-132.7c-3-9.3-7.9-9.3-11,0l-43.1,132.7h-139.5c-9.8,0-11.3,4.7-3.4,10.4l112.9,82
			l-43.101,132.7c-3,9.3,0.9,12.2,8.9,6.4l112.899-82l112.9,82c7.9,5.8,11.9,2.9,8.9-6.4l-43.101-132.7l112.9-82
			C681.888,144.275,680.388,139.675,670.587,139.675z"/>
		<path d="M903.487,964.975c8.3,0,15-6.7,15-15v-285.7c0-8.3-6.7-15-15-15h-150.7v-208.8c0-8.3-6.7-15-15-15h-240.3v-51.4
			c0-8.3-6.7-15-15-15s-15,6.7-15,15v51.4h-240.3c-8.3,0-15,6.7-15,15v208.7h-150.7c-8.3,0-15,6.7-15,15v285.8c0,8.3,6.7,15,15,15
			s15-6.7,15-15v-270.7h135.7h30h135.7v270.7c0,8.3,6.699,15,15,15c8.3,0,15-6.7,15-15v-285.7c0-8.3-6.7-15-15-15h-150.7v-193.8
			h480.6v193.7h-150.7c-8.3,0-15,6.7-15,15v285.8c0,8.3,6.7,15,15,15c8.301,0,15-6.7,15-15v-270.7h135.7h30h135.7v270.7
			C888.487,958.275,895.188,964.975,903.487,964.975z"/>
	</g>
</g>
<g>
</g>
<g>
</g>
<g>
</g>
<g>
</g>
<g>
</g>
<g>
</g>
<g>
</g>
<g>
</g>
<g>
</g>
<g>
</g>
<g>
</g>
<g>
</g>
<g>
</g>
<g>
</g>
<g>
</g>
</svg>
