<?xml version="1.0" encoding="iso-8859-1"?>
<!-- Generator: Adobe Illustrator 16.0.0, SVG Export Plug-In . SVG Version: 6.00 Build 0)  -->
<!DOCTYPE svg PUBLIC "-//W3C//DTD SVG 1.1//EN" "http://www.w3.org/Graphics/SVG/1.1/DTD/svg11.dtd">
<svg version="1.1" id="Capa_1" xmlns="http://www.w3.org/2000/svg" xmlns:xlink="http://www.w3.org/1999/xlink" x="0px" y="0px"
	 fill="#F2473F" width="466.023px" height="466.024px" viewBox="0 0 466.023 466.024" style="enable-background:new 0 0 466.023 466.024;"
	 xml:space="preserve">
<g>
	<g>
		<path d="M359.952,130.375c8.206-11.596,16.875-22.808,25.761-33.84c9.633,8.476,19.403,16.795,29.523,24.735
			c15.26,11.987,36.983-9.417,21.541-21.538c-10.826-8.5-21.271-17.415-31.544-26.515c7.819-8.986,15.762-17.877,23.932-26.581
			c13.427-14.305-8.073-35.894-21.54-21.538c-8.476,9.031-16.707,18.272-24.812,27.616c-7.475-7.081-14.884-14.241-22.19-21.523
			c-13.924-13.878-35.47,7.66-21.546,21.538c7.947,7.919,16.021,15.688,24.171,23.369c-10.227,12.672-20.17,25.578-29.6,38.905
			C322.269,131.078,348.7,146.271,359.952,130.375z"/>
		<path d="M121.252,300.792c-10.785,9.612-21.185,19.621-31.465,29.752c-6.287-6.271-12.515-12.604-18.591-19.094
			c-13.446-14.37-34.946,7.216-21.541,21.541c6.068,6.484,12.291,12.812,18.573,19.078c-7.196,7.292-14.389,14.584-21.622,21.835
			c-13.878,13.924,7.66,35.46,21.543,21.536c7.343-7.363,14.645-14.767,21.949-22.16c7.3,6.916,14.637,13.797,22.011,20.637
			c14.373,13.35,35.967-8.15,21.543-21.536c-7.368-6.845-14.701-13.721-21.99-20.632c10.177-10.014,20.462-19.91,31.131-29.422
			C157.483,309.236,135.861,287.766,121.252,300.792z"/>
		<path d="M460.999,355.06c-0.7-1.447-2.508-5.022-3.955-8.06c-5.982-12.583-14.498-23.557-27.351-30.31
			c-18.007-9.461-38.085-5.149-55.553,3.046c-1.534,0.717-2.823,1.574-3.885,2.524c-1.909,1.721-4.631,5.702-6.724,8.338
			c-16.315,20.602-22.475,45.336-16.188,71.833c0.279,1.183,0.655,2.255,1.112,3.22c0.803,1.706,2.89,5.402,4.494,8.363
			c10.014,18.397,26.761,29.3,48.683,31.59c0.66,0.066,1.31,0.061,1.95,0c1.071-0.106,3.311-0.071,5.058-0.127
			c1.005-0.035,2.051-0.168,3.133-0.416c18.769-4.302,34.997-13.03,45.905-29.229c11.339-16.858,9.379-39.521,4.341-58.051
			C461.751,356.792,461.4,355.892,460.999,355.06z M432.751,398.05c-4.353,9.008-13.513,13.34-22.75,16.011
			c-3.234,0.934-6.449,1.381-7.129,1.259c-0.412-0.071-0.823-0.143-1.244-0.183c-10.562-1.102-19.551-7.841-23.395-17.758
			c-0.213-0.538-0.447-1.071-0.701-1.584c-0.426-0.858-1.498-4.18-1.914-7.516c-1.768-14.178,2.382-26.964,11.202-38.171
			c2.077-2.641,6.464-5.769,9.704-6.673c17.569-4.91,29.721,5.281,36.109,23.963c0.122,0.351,0.264,0.681,0.416,0.995
			c0.259,0.544,1.173,3.616,1.747,6.932C436.138,383.009,436.214,390.884,432.751,398.05z"/>
		<path d="M316.327,183.615c-0.848,16.049-1.741,32.09-2.625,48.126C232.5,151.367,93.194,116.948,8.534,210.924
			c-13.109,14.551,8.366,36.163,21.543,21.539c72.158-80.088,186.699-49.274,257.382,16.406c-14.406-2.279-28.822-4.55-43.233-6.83
			c-19.218-3.036-27.464,26.324-8.104,29.377l86.823,13.705c11.304,1.782,18.753-7.637,19.072-16.326
			c0.066-0.477,0.184-0.913,0.209-1.411c1.549-27.924,3.092-55.845,4.57-83.774C347.831,163.97,317.363,164.075,316.327,183.615z"/>
		<path d="M9.194,110.428c-10.773,16.503,15.61,31.75,26.307,15.376c5.73-8.772,11.636-17.42,17.585-26.042
			c5.845,5.269,11.809,10.41,17.9,15.415c15.046,12.365,36.731-9.06,21.541-21.539c-7.523-6.182-14.792-12.642-21.942-19.22
			c5.647-8.203,11.263-16.435,16.707-24.775c10.773-16.506-15.61-31.75-26.306-15.376c-4.093,6.266-8.267,12.469-12.484,18.646
			c-7.858-8.064-15.569-16.275-22.993-24.773C12.558,13.319-8.901,34.957,3.964,49.678c8.658,9.907,17.664,19.469,26.913,28.777
			C23.542,89.04,16.234,99.643,9.194,110.428z"/>
	</g>
</g>
<g>
</g>
<g>
</g>
<g>
</g>
<g>
</g>
<g>
</g>
<g>
</g>
<g>
</g>
<g>
</g>
<g>
</g>
<g>
</g>
<g>
</g>
<g>
</g>
<g>
</g>
<g>
</g>
<g>
</g>
</svg>
