<?xml version="1.0" encoding="iso-8859-1"?>
<!-- Generator: Adobe Illustrator 18.1.1, SVG Export Plug-In . SVG Version: 6.00 Build 0)  -->
<svg version="1.1" id="Capa_1" xmlns="http://www.w3.org/2000/svg" xmlns:xlink="http://www.w3.org/1999/xlink" x="0px" y="0px"
	 viewBox="0 0 16.644 16.644" style="enable-background:new 0 0 16.644 16.644;" xml:space="preserve">
<g>
	<g>
		<path style="fill:#030104;" d="M13.804,4.661l0.659-0.66l0.196,0.195c0.182,0.182,0.477,0.182,0.657,0
			c0.183-0.181,0.183-0.476,0-0.658L14.33,2.551c-0.182-0.182-0.477-0.182-0.658,0c-0.182,0.183-0.182,0.477,0,0.659l0.218,0.216
			l-0.648,0.648c-1.129-1.043-2.588-1.731-4.203-1.89V1.579h0.469c0.436,0,0.789-0.354,0.789-0.789C10.297,0.354,9.943,0,9.508,0
			H7.14C6.704,0,6.35,0.354,6.35,0.79s0.354,0.789,0.79,0.789h0.52v0.602H7.631c-1.709,0.163-3.245,0.917-4.4,2.058L2.828,4.674
			C1.737,5.943,1.073,7.589,1.073,9.395c0,4.003,3.246,7.249,7.249,7.249c4.005,0,7.249-3.246,7.249-7.249
			C15.572,7.583,14.902,5.931,13.804,4.661z M8.313,15.404c-3.326,0-6.022-2.696-6.022-6.022S4.988,3.36,8.313,3.36
			s6.022,2.696,6.022,6.022C14.335,12.708,11.638,15.404,8.313,15.404z"/>
		<path style="fill:#030104;" d="M8.79,8.843V5.048L8.352,4.346L7.854,5.048v3.795C7.581,9.004,7.396,9.298,7.396,9.638
			c0,0.511,0.415,0.925,0.925,0.925s0.926-0.414,0.926-0.925C9.248,9.298,9.064,9.004,8.79,8.843z"/>
	</g>
</g>
<g>
</g>
<g>
</g>
<g>
</g>
<g>
</g>
<g>
</g>
<g>
</g>
<g>
</g>
<g>
</g>
<g>
</g>
<g>
</g>
<g>
</g>
<g>
</g>
<g>
</g>
<g>
</g>
<g>
</g>
</svg>
