<svg style="position: absolute; width: 0; height: 0;" width="0" height="0" version="1.1" xmlns="http://www.w3.org/2000/svg" xmlns:xlink="http://www.w3.org/1999/xlink">
<defs>
<symbol id="icon-dribbble" viewBox="0 0 1024 1024">
	<title>dribbble</title>
	<path class="path1" d="M512.002 1024c-282.32 0-512.002-229.682-512.002-512s229.682-512 512.002-512c282.322 0 511.998 229.682 511.998 512s-229.676 512-511.998 512zM943.798 582.086c-14.962-4.72-135.364-40.632-272.41-18.698 57.204 157.186 80.478 285.208 84.958 311.808 98.114-66.336 167.958-171.426 187.452-293.11zM682.832 915.238c-6.506-38.37-31.898-172.090-93.298-331.64-0.96 0.328-1.922 0.64-2.88 0.972-246.67 85.958-335.216 257.016-343.086 273.104 74.15 57.824 167.336 92.32 268.436 92.32 60.58 0 118.318-12.39 170.828-34.756zM187.098 805.078c9.908-16.96 129.93-215.684 355.476-288.594 5.704-1.84 11.448-3.57 17.236-5.2-10.98-24.844-22.94-49.714-35.456-74.216-218.398 65.36-430.324 62.63-449.46 62.236-0.132 4.442-0.222 8.89-0.222 13.366 0 112.32 42.58 214.874 112.426 292.408zM83.912 423.096c19.558 0.26 199.736 1.042 404.302-53.282-72.46-128.812-150.612-237.11-162.142-252.92-122.348 57.708-213.802 170.496-242.16 306.202zM409.518 87.5c12.088 16.184 91.518 124.348 163.18 256.014 155.508-58.284 221.34-146.77 229.208-157.974-77.23-68.518-178.782-110.2-289.902-110.2-35.29 0-69.6 4.232-102.486 12.16zM850.522 236.112c-9.216 12.474-82.504 106.418-244.202 172.434 10.178 20.832 19.934 42.018 29.016 63.344 3.216 7.56 6.354 15.084 9.418 22.57 145.518-18.298 290.104 11.028 304.526 14.078-0.968-103.224-37.85-198.010-98.758-272.426z"></path>
</symbol>
</defs>
</svg>
